<?xml version="1.0" standalone="no"?>

<svg width="100%" height="100%" xmlns="http://www.w3.org/2000/svg" xmlns:xlink="http://www.w3.org/1999/xlink" zoomAndPan="magnify" viewBox="68 107 250 192" preserveAspectRatio="xMidYMid meet" version="1.0"><path fill="#FBF4E4" d="M 79.667969 116.960938 C 116.261719 116.960938 152.746094 118.324219 189.257812 118.324219 C 203.042969 118.324219 217.0625 119.09375 230.761719 117.804688 C 243.191406 116.644531 255.828125 114.828125 268.207031 114.90625 C 281.242188 114.984375 294.5625 114.640625 307.578125 115.695312 C 308.269531 122.4375 307.933594 129.234375 308.980469 135.980469 C 310.695312 147.042969 311.324219 158.976562 311.527344 170.140625 C 311.8125 186.058594 311.230469 202.378906 309.417969 218.074219 C 307.050781 238.613281 310.890625 260.050781 310.039062 280.460938 C 294.660156 285.726562 275.191406 279.746094 259.085938 281.777344 C 243.230469 283.78125 227.707031 290.421875 211.734375 290.667969 C 183.511719 291.09375 155.871094 288.441406 127.890625 287.246094 C 115.082031 286.703125 102.605469 285.355469 89.847656 284.546875 C 87.132812 284.378906 79.390625 283.664062 77.464844 281.824219 C 73.910156 278.425781 75.363281 270.570312 75.363281 264.65625 C 75.363281 236.328125 74.84375 206.910156 78.179688 179.207031 C 80.527344 159.703125 80.753906 140.417969 79.675781 116.953125 Z M 79.667969 116.960938 " fill-opacity="1" fill-rule="nonzero"></path><path fill="#FBF4E4" d="M 150.023438 222.65625 C 150.023438 227.359375 151.230469 230.78125 153.667969 232.90625 C 155.242188 234.277344 157.226562 235.039062 159.238281 235.496094 C 161.511719 236.015625 163.078125 235.347656 164.621094 237.367188 C 166.375 239.65625 166.753906 242.277344 167.886719 244.828125 C 168.679688 246.613281 169.460938 248.382812 170.175781 250.1875 C 170.253906 250.382812 170.324219 250.632812 170.175781 250.777344 C 170.082031 250.878906 169.933594 250.886719 169.796875 250.894531 C 164.714844 251.207031 159.507812 251.375 154.464844 250.539062 C 149.929688 249.785156 145.171875 248.3125 141.738281 245.125 C 135.933594 239.738281 134.296875 231.789062 134.296875 224.15625 C 134.296875 215.816406 134.296875 207.46875 134.296875 199.128906 C 134.296875 195.894531 134.296875 192.667969 134.382812 189.441406 C 134.40625 188.5 133.964844 187.910156 133 187.902344 C 128.511719 187.871094 124.019531 187.902344 119.527344 187.902344 C 119.402344 185.40625 119.386719 182.90625 119.402344 180.417969 C 119.410156 179.152344 119.425781 177.898438 119.417969 176.632812 C 119.417969 175.925781 119.03125 174.003906 119.652344 173.445312 C 120.101562 173.039062 122.460938 173.367188 123.085938 173.359375 C 124.359375 173.34375 125.640625 173.351562 126.910156 173.359375 C 128.78125 173.367188 130.660156 173.519531 132.527344 173.613281 C 132.960938 173.636719 133.421875 173.652344 133.800781 173.445312 C 134.34375 173.148438 134.578125 172.480469 134.613281 171.867188 C 134.941406 167.121094 134.28125 162.4375 134.0625 157.703125 C 134.035156 157.019531 134.011719 156.332031 134.179688 155.671875 C 134.242188 155.4375 134.328125 155.199219 134.507812 155.027344 C 135.460938 154.066406 139.066406 154.632812 140.308594 154.648438 C 142.605469 154.679688 144.894531 154.769531 147.191406 154.769531 C 147.863281 154.769531 149.601562 154.242188 150.015625 154.972656 C 150.167969 155.246094 150.152344 155.578125 150.144531 155.886719 C 150.023438 158.773438 150.03125 161.652344 150.03125 164.546875 C 150.03125 166.027344 148.914062 173.429688 150.984375 173.429688 C 159.4375 173.414062 167.894531 173.421875 176.359375 173.421875 C 185.628906 173.421875 194.898438 173.421875 204.175781 173.421875 C 206.675781 173.421875 209.328125 172.945312 211.789062 173.488281 C 211.789062 177.875 211.933594 183.164062 210.421875 187.3125 C 210.351562 187.5 210.273438 187.695312 210.113281 187.804688 C 209.941406 187.917969 209.722656 187.925781 209.515625 187.917969 C 205.292969 187.894531 201.082031 187.917969 196.863281 187.917969 L 154.777344 187.917969 C 153.488281 187.917969 151.472656 187.269531 150.394531 188.230469 C 148.988281 189.480469 150.03125 192.464844 150.03125 194.046875 L 150.03125 216.15625 C 150.03125 218.320312 150.03125 220.492188 150.03125 222.65625 Z M 150.023438 222.65625 " fill-opacity="1" fill-rule="nonzero"></path><path fill="#FBF4E4" d="M 210.941406 247.398438 C 210.941406 247.398438 210.933594 247.421875 210.925781 247.433594 C 210.839844 247.628906 210.601562 247.699219 210.390625 247.746094 C 205.246094 248.894531 199.957031 249.25 194.699219 249.25 C 186.132812 249.25 179.367188 246.839844 174.589844 242.089844 C 169.757812 237.273438 167.289062 230.34375 167.289062 221.488281 C 167.289062 212.628906 169.53125 206.085938 173.929688 201.230469 C 178.335938 196.390625 184.621094 193.929688 192.609375 193.929688 C 192.640625 193.929688 192.671875 193.929688 192.703125 193.929688 C 197.25 193.960938 202.410156 194.933594 206.355469 197.265625 C 208.070312 198.285156 209.761719 199.773438 210.019531 201.867188 C 210.382812 204.777344 208.0625 208.445312 206.824219 210.914062 C 206.101562 212.355469 205.769531 213.527344 203.984375 213.683594 C 201.332031 213.914062 198.800781 212.03125 196.472656 211.035156 C 191.914062 209.082031 186.367188 210.410156 184.132812 215.078125 C 182.96875 217.523438 182.820312 220.339844 183.15625 223.023438 C 184.007812 229.886719 189.128906 232.84375 195.699219 232.84375 C 198.5625 232.84375 201.382812 232.546875 204.214844 232.183594 C 204.378906 232.160156 204.558594 232.144531 204.695312 232.222656 C 204.851562 232.308594 204.9375 232.488281 205.007812 232.648438 C 207.015625 237.421875 209.570312 241.925781 210.902344 246.960938 C 210.941406 247.101562 210.980469 247.257812 210.933594 247.398438 Z M 210.941406 247.398438 " fill-opacity="1" fill-rule="nonzero"></path><path fill="#FBF4E4" d="M 267.324219 232.578125 C 267.355469 225.195312 267.371094 217.808594 267.277344 210.441406 C 267.253906 208.289062 267.183594 206.140625 267.035156 203.992188 C 266.742188 199.765625 266.167969 195.515625 264.910156 191.449219 C 262.351562 183.164062 256.664062 176.847656 248.117188 174.644531 C 242.988281 173.328125 237.714844 172.621094 232.421875 172.488281 C 229.824219 172.425781 227.21875 172.503906 224.625 172.714844 C 222.851562 172.863281 220.265625 173.171875 219.902344 175.398438 C 219.570312 177.429688 219.644531 179.550781 219.4375 181.597656 C 219.328125 182.683594 218.511719 185.625 218.988281 186.601562 C 220.148438 189.003906 226.742188 187.949219 228.753906 187.828125 C 233.375 187.546875 238.132812 187.035156 242.71875 187.988281 C 244.953125 188.453125 247.132812 189.441406 248.667969 191.132812 C 251.011719 193.714844 251.5625 197.492188 251.839844 200.835938 C 252.027344 203.0625 254.214844 210.300781 250.132812 209.941406 C 246.75 209.648438 243.40625 208.894531 239.992188 208.894531 C 231.453125 208.894531 224.851562 210.6875 220.203125 214.28125 C 215.558594 217.871094 213.230469 223.03125 213.230469 229.765625 C 213.230469 235.550781 215.007812 240.011719 218.558594 243.144531 C 223.402344 247.421875 229.871094 247.746094 235.976562 248.15625 C 244.027344 248.707031 252.21875 249.101562 260.164062 247.359375 C 262.382812 246.871094 264.742188 246.101562 266.042969 244.238281 C 267.230469 242.546875 267.285156 240.335938 267.292969 238.273438 C 267.300781 236.367188 267.308594 234.464844 267.316406 232.554688 Z M 245.703125 235.605469 C 245.523438 235.605469 245.355469 235.621094 245.175781 235.621094 C 242.414062 235.675781 239.675781 235.503906 236.96875 235.03125 C 234.875 234.660156 232.765625 234.667969 230.972656 233.324219 C 229.535156 232.246094 228.816406 230.6875 228.816406 228.648438 C 228.816406 224.109375 232.789062 221.84375 240.722656 221.84375 C 242.839844 221.84375 244.867188 221.890625 246.789062 221.984375 C 247.90625 222.039062 249 222.238281 250.109375 222.332031 C 250.746094 222.386719 251.589844 222.230469 252.179688 222.542969 C 254.136719 223.597656 253.5 227.25 253.242188 228.972656 C 253.019531 230.476562 252.769531 232.058594 251.832031 233.269531 C 250.445312 235.0625 247.984375 235.511719 245.6875 235.605469 Z M 245.703125 235.605469 " fill-opacity="1" fill-rule="nonzero"></path><path fill="#ffffff" d="M 214.597656 252.613281 C 214.59375 252.625 214.585938 252.636719 214.582031 252.648438 C 214.488281 252.859375 214.234375 252.933594 214.011719 252.984375 C 205.105469 254.980469 193.625 255.769531 184.800781 252.945312 C 174.972656 249.804688 168.839844 242.066406 165.203125 232.664062 C 160.339844 220.101562 159.996094 205.222656 165.078125 192.65625 C 166.003906 190.375 167.183594 188.207031 168.5625 186.175781 C 172.394531 180.53125 177.871094 175.816406 184.175781 173 C 186.128906 172.125 188.308594 171.21875 190.441406 170.929688 C 192.476562 170.65625 194.527344 170.90625 196.570312 170.828125 C 198.382812 170.761719 200.21875 170.824219 202.039062 170.824219 C 204.300781 170.824219 206.5625 170.824219 208.824219 170.824219 C 210.367188 170.824219 211.65625 173.730469 212.105469 174.914062 C 212.949219 177.140625 213.050781 179.753906 212.742188 182.097656 C 212.425781 184.5 211.203125 187.4375 208.390625 187.460938 C 202.644531 187.507812 196.644531 186.851562 190.988281 188.113281 C 188.015625 188.78125 185.449219 191.121094 183.871094 193.628906 C 181.980469 196.628906 181.121094 200.171875 180.671875 203.683594 C 179.847656 210.058594 180.289062 216.585938 181.90625 222.804688 C 182.804688 226.253906 183.601562 229.84375 185.621094 232.84375 C 187.832031 236.144531 191.699219 237.359375 195.492188 237.847656 C 198.632812 238.25 203.605469 238.15625 206.761719 238.421875 C 207.820312 238.515625 208.480469 238.753906 208.957031 239.164062 C 209.59375 239.703125 209.910156 240.527344 210.429688 241.644531 C 210.957031 242.785156 211.484375 243.921875 211.992188 245.074219 C 213 247.367188 213.933594 249.714844 214.566406 252.144531 C 214.609375 252.300781 214.652344 252.464844 214.601562 252.609375 Z M 214.597656 252.613281 " fill-opacity="1" fill-rule="nonzero"></path><path fill="#ffffff" d="M 269.804688 254.515625 C 271.59375 254.515625 273.183594 252.796875 274.457031 251.230469 C 273.179688 252.777344 271.589844 254.457031 269.804688 254.515625 Z M 256.996094 254.71875 C 254.378906 254.734375 251.699219 254.742188 248.777344 254.78125 C 251.960938 254.800781 254.5625 254.769531 256.996094 254.71875 Z M 256.996094 254.71875 C 261.164062 254.699219 265.179688 254.671875 269.804688 254.515625 C 264.707031 254.515625 261.097656 254.640625 256.996094 254.71875 Z M 256.996094 254.71875 " fill-opacity="1" fill-rule="nonzero"></path><path fill="#ffffff" d="M 277.082031 242.011719 C 276.976562 232.492188 276.871094 222.972656 276.765625 213.449219 L 276.765625 213.148438 C 276.695312 207.207031 276.625 201.222656 275.40625 195.40625 C 274.183594 189.589844 271.707031 183.890625 267.460938 179.738281 C 263.738281 176.101562 258.84375 173.839844 253.800781 172.585938 C 248.746094 171.335938 243.511719 171.039062 238.316406 170.902344 C 234.011719 170.789062 229.699219 170.78125 225.390625 170.882812 C 224.550781 170.902344 222.726562 170.882812 222.191406 171.714844 C 221.652344 172.554688 222.542969 174.171875 222.734375 175.148438 C 223.292969 177.960938 223.25 180.894531 222.597656 183.6875 C 222.332031 184.796875 222.027344 186.117188 222.796875 186.960938 C 223.429688 187.652344 224.496094 187.660156 225.433594 187.625 C 231.578125 187.386719 237.753906 187.199219 243.867188 187.890625 C 247.757812 188.328125 251.765625 189.191406 254.847656 191.601562 C 259.859375 195.523438 261.230469 202.515625 261.242188 208.878906 C 261.25 210.269531 261.054688 211.921875 259.835938 212.597656 C 259.117188 212.996094 258.238281 212.921875 257.421875 212.839844 C 250.871094 212.160156 244.222656 211.503906 237.75 212.699219 C 231.28125 213.898438 224.898438 217.207031 221.5 222.847656 C 219.300781 226.492188 218.496094 230.851562 218.613281 235.105469 C 218.71875 238.957031 219.59375 242.890625 221.839844 246.019531 C 224.644531 249.933594 229.453125 254.109375 234.25 254.515625 C 240.128906 255.011719 244.015625 254.84375 248.773438 254.78125 C 251.699219 254.742188 254.378906 254.734375 256.992188 254.71875 C 261.09375 254.640625 264.703125 254.515625 269.796875 254.515625 C 271.585938 254.457031 273.175781 252.777344 274.453125 251.230469 C 274.746094 250.871094 275.019531 250.515625 275.277344 250.195312 C 277.058594 247.96875 277.113281 244.863281 277.078125 242.011719 Z M 242.347656 239.734375 C 240.917969 239.480469 239.464844 239.167969 238.207031 238.4375 C 236.277344 237.308594 235.425781 235.253906 235.425781 233.082031 C 235.425781 225.847656 244.769531 225.742188 249.910156 225.765625 C 251.917969 225.777344 253.921875 225.855469 255.917969 226.011719 C 257.550781 226.136719 259.957031 225.71875 261.253906 226.976562 C 262.203125 227.898438 262.144531 229.40625 262.109375 230.625 C 262.082031 231.574219 261.988281 232.519531 261.828125 233.449219 C 261.722656 234.097656 261.578125 234.742188 261.414062 235.375 C 260.84375 237.453125 259.8125 239.066406 257.75 239.890625 C 256.703125 240.304688 255.578125 240.484375 254.460938 240.589844 C 250.449219 240.957031 246.296875 240.4375 242.351562 239.738281 Z M 242.347656 239.734375 " fill-opacity="1" fill-rule="nonzero"></path><path fill="#ffffff" d="M 171.164062 170.617188 C 171.269531 170.640625 171.363281 170.679688 171.457031 170.730469 C 172.515625 171.3125 171.453125 171.835938 170.820312 172.257812 C 169.289062 173.265625 167.824219 174.363281 166.433594 175.558594 C 163.691406 177.921875 161.234375 180.636719 159.179688 183.625 C 159.128906 183.695312 159.082031 183.769531 159.03125 183.839844 C 158.449219 184.6875 157.910156 185.554688 157.414062 186.429688 C 153.050781 186.417969 147.960938 186.429688 146.167969 186.429688 C 144.78125 186.429688 142.597656 185.726562 141.4375 186.765625 C 139.925781 188.117188 141.046875 191.335938 141.046875 193.042969 L 141.046875 223.910156 C 141.046875 228.980469 142.351562 232.675781 144.976562 234.972656 C 146.675781 236.453125 148.816406 237.273438 150.992188 237.765625 C 152.542969 238.121094 155.058594 238.488281 157.367188 238.964844 C 157.589844 239.402344 157.816406 239.835938 158.054688 240.269531 C 159.636719 243.160156 161.539062 245.886719 163.800781 248.292969 C 164.867188 249.425781 166.011719 250.484375 167.230469 251.460938 C 167.6875 251.832031 168.5625 252.238281 168.738281 252.804688 C 168.933594 253.441406 169.007812 253.6875 168.226562 254.0625 C 167.550781 254.386719 166.746094 254.511719 165.996094 254.523438 C 158.0625 254.652344 153.144531 255.003906 145.851562 254.015625 C 140.933594 253.347656 135.828125 251.613281 132.117188 248.167969 C 125.855469 242.359375 124.089844 233.78125 124.089844 225.550781 L 124.089844 198.546875 C 124.089844 195.058594 124.089844 191.574219 124.183594 188.089844 C 124.210938 187.082031 123.734375 186.4375 122.691406 186.4375 C 117.84375 186.398438 112.996094 186.4375 108.15625 186.429688 C 108.023438 183.738281 108 181.042969 108.023438 178.351562 C 108.03125 176.992188 108.042969 175.625 108.039062 174.269531 C 108.035156 173.503906 107.617188 171.4375 108.289062 170.832031 L 118.917969 170.832031 C 120.003906 170.890625 121.085938 170.960938 122.175781 171.015625 C 122.640625 171.039062 123.136719 171.054688 123.546875 170.832031 C 124.132812 170.511719 124.382812 169.796875 124.429688 169.132812 C 124.800781 163.769531 123.996094 158.476562 123.804688 153.121094 C 123.789062 152.628906 123.835938 152.132812 123.960938 151.660156 C 124.027344 151.40625 124.121094 151.144531 124.308594 150.957031 C 125.335938 149.917969 129.230469 150.53125 130.570312 150.550781 C 133.042969 150.578125 135.515625 150.683594 137.988281 150.683594 C 138.710938 150.683594 140.589844 150.113281 141.03125 150.902344 C 141.195312 151.199219 141.1875 151.550781 141.175781 151.890625 C 141.039062 155.003906 141.050781 158.109375 141.050781 161.226562 C 141.050781 162.824219 139.847656 170.808594 142.078125 170.804688 C 151.203125 170.789062 147.789062 170.796875 157.789062 170.796875 C 160.167969 170.796875 162.550781 170.671875 164.921875 170.625 L 171.167969 170.625 Z M 171.164062 170.617188 " fill-opacity="1" fill-rule="nonzero"></path></svg>