<?xml version="1.0" encoding="UTF-8" standalone="no"?>

<svg width="100%" height="100%" viewBox="68 107 250 192" version="1.1" xmlns="http://www.w3.org/2000/svg" xmlns:xlink="http://www.w3.org/1999/xlink" xml:space="preserve" xmlns:serif="http://www.serif.com/" style="fill-rule:evenodd;clip-rule:evenodd;stroke-linejoin:round;stroke-miterlimit:2;">
    <g transform="matrix(1.494658,0,0,1.494658,-102.133639,-116.838133)">
        <path d="M79.668,116.961C116.262,116.961 152.746,118.324 189.258,118.324C203.043,118.324 217.062,119.094 230.762,117.805C243.191,116.645 255.828,114.828 268.207,114.906C281.242,114.984 294.562,114.641 307.578,115.695C308.27,122.438 307.934,129.234 308.98,135.98C310.695,147.043 311.324,158.977 311.527,170.141C311.812,186.059 311.23,202.379 309.418,218.074C307.051,238.613 310.891,260.051 310.039,280.461C294.66,285.727 275.191,279.746 259.086,281.777C243.23,283.781 227.707,290.422 211.734,290.668C183.512,291.094 155.871,288.441 127.891,287.246C115.082,286.703 102.605,285.355 89.848,284.547C87.133,284.379 79.391,283.664 77.465,281.824C73.91,278.426 75.363,270.57 75.363,264.656C75.363,236.328 74.844,206.91 78.18,179.207C80.527,159.703 80.754,140.418 79.676,116.953L79.668,116.961Z" style="fill:rgb(20,73,141);fill-rule:nonzero;"></path>
    </g>
    <g transform="matrix(1.494658,0,0,1.494658,-102.133639,-116.838133)">
        <path d="M150.023,222.656C150.023,227.359 151.23,230.781 153.668,232.906C155.242,234.277 157.227,235.039 159.238,235.496C161.512,236.016 163.078,235.348 164.621,237.367C166.375,239.656 166.754,242.277 167.887,244.828C168.68,246.613 169.461,248.383 170.176,250.188C170.254,250.383 170.324,250.633 170.176,250.777C170.082,250.879 169.934,250.887 169.797,250.895C164.715,251.207 159.508,251.375 154.465,250.539C149.93,249.785 145.172,248.312 141.738,245.125C135.934,239.738 134.297,231.789 134.297,224.156L134.297,199.129C134.297,195.895 134.297,192.668 134.383,189.441C134.406,188.5 133.965,187.91 133,187.902C128.512,187.871 124.02,187.902 119.527,187.902C119.402,185.406 119.387,182.906 119.402,180.418C119.41,179.152 119.426,177.898 119.418,176.633C119.418,175.926 119.031,174.004 119.652,173.445C120.102,173.039 122.461,173.367 123.086,173.359C124.359,173.344 125.641,173.352 126.91,173.359C128.781,173.367 130.66,173.52 132.527,173.613C132.961,173.637 133.422,173.652 133.801,173.445C134.344,173.148 134.578,172.48 134.613,171.867C134.941,167.121 134.281,162.438 134.062,157.703C134.035,157.02 134.012,156.332 134.18,155.672C134.242,155.438 134.328,155.199 134.508,155.027C135.461,154.066 139.066,154.633 140.309,154.648C142.605,154.68 144.895,154.77 147.191,154.77C147.863,154.77 149.602,154.242 150.016,154.973C150.168,155.246 150.152,155.578 150.145,155.887C150.023,158.773 150.031,161.652 150.031,164.547C150.031,166.027 148.914,173.43 150.984,173.43C159.438,173.414 167.895,173.422 176.359,173.422L204.176,173.422C206.676,173.422 209.328,172.945 211.789,173.488C211.789,177.875 211.934,183.164 210.422,187.312C210.352,187.5 210.273,187.695 210.113,187.805C209.941,187.918 209.723,187.926 209.516,187.918C205.293,187.895 201.082,187.918 196.863,187.918L154.777,187.918C153.488,187.918 151.473,187.27 150.395,188.23C148.988,189.48 150.031,192.465 150.031,194.047L150.031,222.656L150.023,222.656Z" style="fill:rgb(20,73,141);fill-rule:nonzero;"></path>
    </g>
    <g transform="matrix(1.494658,0,0,1.494658,-102.133639,-116.838133)">
        <path d="M210.941,247.398C210.941,247.398 210.934,247.422 210.926,247.434C210.84,247.629 210.602,247.699 210.391,247.746C205.246,248.895 199.957,249.25 194.699,249.25C186.133,249.25 179.367,246.84 174.59,242.09C169.758,237.273 167.289,230.344 167.289,221.488C167.289,212.629 169.531,206.086 173.93,201.23C178.336,196.391 184.621,193.93 192.609,193.93L192.703,193.93C197.25,193.961 202.41,194.934 206.355,197.266C208.07,198.285 209.762,199.773 210.02,201.867C210.383,204.777 208.062,208.445 206.824,210.914C206.102,212.355 205.77,213.527 203.984,213.684C201.332,213.914 198.801,212.031 196.473,211.035C191.914,209.082 186.367,210.41 184.133,215.078C182.969,217.523 182.82,220.34 183.156,223.023C184.008,229.887 189.129,232.844 195.699,232.844C198.562,232.844 201.383,232.547 204.215,232.184C204.379,232.16 204.559,232.145 204.695,232.223C204.852,232.309 204.938,232.488 205.008,232.648C207.016,237.422 209.57,241.926 210.902,246.961C210.941,247.102 210.98,247.258 210.934,247.398L210.941,247.398Z" style="fill:rgb(20,73,141);fill-rule:nonzero;"></path>
    </g>
    <g transform="matrix(1.494658,0,0,1.494658,-102.133639,-116.838133)">
        <path d="M267.324,232.578C267.355,225.195 267.371,217.809 267.277,210.441C267.254,208.289 267.184,206.141 267.035,203.992C266.742,199.766 266.168,195.516 264.91,191.449C262.352,183.164 256.664,176.848 248.117,174.645C242.988,173.328 237.715,172.621 232.422,172.488C229.824,172.426 227.219,172.504 224.625,172.715C222.852,172.863 220.266,173.172 219.902,175.398C219.57,177.43 219.645,179.551 219.438,181.598C219.328,182.684 218.512,185.625 218.988,186.602C220.148,189.004 226.742,187.949 228.754,187.828C233.375,187.547 238.133,187.035 242.719,187.988C244.953,188.453 247.133,189.441 248.668,191.133C251.012,193.715 251.562,197.492 251.84,200.836C252.027,203.062 254.215,210.301 250.133,209.941C246.75,209.648 243.406,208.895 239.992,208.895C231.453,208.895 224.852,210.688 220.203,214.281C215.559,217.871 213.23,223.031 213.23,229.766C213.23,235.551 215.008,240.012 218.559,243.145C223.402,247.422 229.871,247.746 235.977,248.156C244.027,248.707 252.219,249.102 260.164,247.359C262.383,246.871 264.742,246.102 266.043,244.238C267.23,242.547 267.285,240.336 267.293,238.273C267.301,236.367 267.309,234.465 267.316,232.555L267.324,232.578ZM245.703,235.605C245.523,235.605 245.355,235.621 245.176,235.621C242.414,235.676 239.676,235.504 236.969,235.031C234.875,234.66 232.766,234.668 230.973,233.324C229.535,232.246 228.816,230.688 228.816,228.648C228.816,224.109 232.789,221.844 240.723,221.844C242.84,221.844 244.867,221.891 246.789,221.984C247.906,222.039 249,222.238 250.109,222.332C250.746,222.387 251.59,222.23 252.18,222.543C254.137,223.598 253.5,227.25 253.242,228.973C253.02,230.477 252.77,232.059 251.832,233.27C250.445,235.062 247.984,235.512 245.688,235.605L245.703,235.605Z" style="fill:rgb(20,73,141);fill-rule:nonzero;"></path>
    </g>
    <g transform="matrix(1.494658,0,0,1.494658,-102.133639,-116.838133)">
        <path d="M214.598,252.613C214.594,252.625 214.586,252.637 214.582,252.648C214.488,252.859 214.234,252.934 214.012,252.984C205.105,254.98 193.625,255.77 184.801,252.945C174.973,249.805 168.84,242.066 165.203,232.664C160.34,220.102 159.996,205.223 165.078,192.656C166.004,190.375 167.184,188.207 168.562,186.176C172.395,180.531 177.871,175.816 184.176,173C186.129,172.125 188.309,171.219 190.441,170.93C192.477,170.656 194.527,170.906 196.57,170.828C198.383,170.762 200.219,170.824 202.039,170.824L208.824,170.824C210.367,170.824 211.656,173.73 212.105,174.914C212.949,177.141 213.051,179.754 212.742,182.098C212.426,184.5 211.203,187.438 208.391,187.461C202.645,187.508 196.645,186.852 190.988,188.113C188.016,188.781 185.449,191.121 183.871,193.629C181.98,196.629 181.121,200.172 180.672,203.684C179.848,210.059 180.289,216.586 181.906,222.805C182.805,226.254 183.602,229.844 185.621,232.844C187.832,236.145 191.699,237.359 195.492,237.848C198.633,238.25 203.605,238.156 206.762,238.422C207.82,238.516 208.48,238.754 208.957,239.164C209.594,239.703 209.91,240.527 210.43,241.645C210.957,242.785 211.484,243.922 211.992,245.074C213,247.367 213.934,249.715 214.566,252.145C214.609,252.301 214.652,252.465 214.602,252.609L214.598,252.613Z" style="fill:white;fill-rule:nonzero;"></path>
    </g>
    <g transform="matrix(1.494658,0,0,1.494658,-102.133639,-116.838133)">
        <path d="M269.805,254.516C271.594,254.516 273.184,252.797 274.457,251.23C273.18,252.777 271.59,254.457 269.805,254.516ZM256.996,254.719C254.379,254.734 251.699,254.742 248.777,254.781C251.961,254.801 254.562,254.77 256.996,254.719ZM256.996,254.719C261.164,254.699 265.18,254.672 269.805,254.516C264.707,254.516 261.098,254.641 256.996,254.719Z" style="fill:white;fill-rule:nonzero;"></path>
    </g>
    <g transform="matrix(1.494658,0,0,1.494658,-102.133639,-116.838133)">
        <path d="M277.082,242.012C276.977,232.492 276.871,222.973 276.766,213.449L276.766,213.148C276.695,207.207 276.625,201.223 275.406,195.406C274.184,189.59 271.707,183.891 267.461,179.738C263.738,176.102 258.844,173.84 253.801,172.586C248.746,171.336 243.512,171.039 238.316,170.902C234.012,170.789 229.699,170.781 225.391,170.883C224.551,170.902 222.727,170.883 222.191,171.715C221.652,172.555 222.543,174.172 222.734,175.148C223.293,177.961 223.25,180.895 222.598,183.688C222.332,184.797 222.027,186.117 222.797,186.961C223.43,187.652 224.496,187.66 225.434,187.625C231.578,187.387 237.754,187.199 243.867,187.891C247.758,188.328 251.766,189.191 254.848,191.602C259.859,195.523 261.23,202.516 261.242,208.879C261.25,210.27 261.055,211.922 259.836,212.598C259.117,212.996 258.238,212.922 257.422,212.84C250.871,212.16 244.223,211.504 237.75,212.699C231.281,213.898 224.898,217.207 221.5,222.848C219.301,226.492 218.496,230.852 218.613,235.105C218.719,238.957 219.594,242.891 221.84,246.02C224.645,249.934 229.453,254.109 234.25,254.516C240.129,255.012 244.016,254.844 248.773,254.781C251.699,254.742 254.379,254.734 256.992,254.719C261.094,254.641 264.703,254.516 269.797,254.516C271.586,254.457 273.176,252.777 274.453,251.23C274.746,250.871 275.02,250.516 275.277,250.195C277.059,247.969 277.113,244.863 277.078,242.012L277.082,242.012ZM242.348,239.734C240.918,239.48 239.465,239.168 238.207,238.438C236.277,237.309 235.426,235.254 235.426,233.082C235.426,225.848 244.77,225.742 249.91,225.766C251.918,225.777 253.922,225.855 255.918,226.012C257.551,226.137 259.957,225.719 261.254,226.977C262.203,227.898 262.145,229.406 262.109,230.625C262.082,231.574 261.988,232.52 261.828,233.449C261.723,234.098 261.578,234.742 261.414,235.375C260.844,237.453 259.812,239.066 257.75,239.891C256.703,240.305 255.578,240.484 254.461,240.59C250.449,240.957 246.297,240.438 242.352,239.738L242.348,239.734Z" style="fill:white;fill-rule:nonzero;"></path>
    </g>
    <g transform="matrix(1.494658,0,0,1.494658,-102.133639,-116.838133)">
        <path d="M171.164,170.617C171.27,170.641 171.363,170.68 171.457,170.73C172.516,171.312 171.453,171.836 170.82,172.258C169.289,173.266 167.824,174.363 166.434,175.559C163.691,177.922 161.234,180.637 159.18,183.625C159.129,183.695 159.082,183.77 159.031,183.84C158.449,184.688 157.91,185.555 157.414,186.43C153.051,186.418 147.961,186.43 146.168,186.43C144.781,186.43 142.598,185.727 141.438,186.766C139.926,188.117 141.047,191.336 141.047,193.043L141.047,223.91C141.047,228.98 142.352,232.676 144.977,234.973C146.676,236.453 148.816,237.273 150.992,237.766C152.543,238.121 155.059,238.488 157.367,238.965C157.59,239.402 157.816,239.836 158.055,240.27C159.637,243.16 161.539,245.887 163.801,248.293C164.867,249.426 166.012,250.484 167.23,251.461C167.688,251.832 168.562,252.238 168.738,252.805C168.934,253.441 169.008,253.688 168.227,254.062C167.551,254.387 166.746,254.512 165.996,254.523C158.062,254.652 153.145,255.004 145.852,254.016C140.934,253.348 135.828,251.613 132.117,248.168C125.855,242.359 124.09,233.781 124.09,225.551L124.09,198.547C124.09,195.059 124.09,191.574 124.184,188.09C124.211,187.082 123.734,186.438 122.691,186.438C117.844,186.398 112.996,186.438 108.156,186.43C108.023,183.738 108,181.043 108.023,178.352C108.031,176.992 108.043,175.625 108.039,174.27C108.035,173.504 107.617,171.438 108.289,170.832L118.918,170.832C120.004,170.891 121.086,170.961 122.176,171.016C122.641,171.039 123.137,171.055 123.547,170.832C124.133,170.512 124.383,169.797 124.43,169.133C124.801,163.77 123.996,158.477 123.805,153.121C123.789,152.629 123.836,152.133 123.961,151.66C124.027,151.406 124.121,151.145 124.309,150.957C125.336,149.918 129.23,150.531 130.57,150.551C133.043,150.578 135.516,150.684 137.988,150.684C138.711,150.684 140.59,150.113 141.031,150.902C141.195,151.199 141.188,151.551 141.176,151.891C141.039,155.004 141.051,158.109 141.051,161.227C141.051,162.824 139.848,170.809 142.078,170.805C151.203,170.789 147.789,170.797 157.789,170.797C160.168,170.797 162.551,170.672 164.922,170.625L171.168,170.625L171.164,170.617Z" style="fill:white;fill-rule:nonzero;"></path>
    </g>
</svg>